<?xml version="1.0" standalone="no"?><svg xmlns="http://www.w3.org/2000/svg" viewBox="0 0 1440 320"><path fill="#ffd700" fill-opacity="1" d="M0,0L24,32C48,64,96,128,144,138.7C192,149,240,107,288,101.3C336,96,384,128,432,144C480,160,528,160,576,154.7C624,149,672,139,720,117.3C768,96,816,64,864,69.3C912,75,960,117,1008,144C1056,171,1104,181,1152,186.7C1200,192,1248,192,1296,170.7C1344,149,1392,107,1416,85.3L1440,64L1440,320L1416,320C1392,320,1344,320,1296,320C1248,320,1200,320,1152,320C1104,320,1056,320,1008,320C960,320,912,320,864,320C816,320,768,320,720,320C672,320,624,320,576,320C528,320,480,320,432,320C384,320,336,320,288,320C240,320,192,320,144,320C96,320,48,320,24,320L0,320Z"></path></svg>